#!OML:ASF H:\Dans Jumps\Project 1\Capture day 1\Session 1\subject.ASF
:FULLY-SPECIFIED
:DEGREES
464
root 0.114439 17.9125 3.21608 10.4909 0.78459 -0.691677
lowerback -0.329738 0.35655 -0.200254
upperback 3.57858 0.446427 1.04594
thorax 3.85486 0.197287 1.20544
lowerneck -11.9962 -0.412852 -1.88741
upperneck 33.2961 -0.602029 1.53151
head 13.1533 -0.291169 0.845836
rclavicle 3.57812e-015 5.1684e-015
rhumerus -24.4018 -11.2625 -83.3063
rradius 24.8336
rwrist 34.5197
rhand -24.6339 -29.5513
rfingers 7.12502
rthumb 1.86515 -59.5229
lclavicle 3.57812e-015 5.1684e-015
lhumerus -23.7004 -2.49077 90.1638
lradius 18.2774
lwrist 10.1827
lhand -26.4419 -7.58781
lfingers 7.12502
lthumb 0.11898 22.3919
rfemur -16.2176 -2.42923 19.9635
rtibia 19.5446
rfoot -10.5587 -0.627817
rtoes 18.3826
lfemur -13.6438 4.6838 -17.7507
ltibia 15.9804
lfoot -6.92755 3.68643
ltoes 5.34121
465
root 0.117071 17.9023 3.22794 10.4277 0.71649 -0.711375
lowerback -0.391233 0.363894 -0.154735
upperback 3.58392 0.454495 1.05511
thorax 3.89533 0.202412 1.19024
lowerneck -11.9748 -0.402819 -1.90199
upperneck 33.3465 -0.587103 1.53844
head 13.17 -0.28587 0.85368
rclavicle 2.98177e-016 -3.97569e-016
rhumerus -24.3185 -11.3458 -83.2797
rradius 24.7557
rwrist 34.5903
rhand -24.5909 -29.6121
rfingers 7.12502
rthumb 1.90665 -59.5833
lclavicle 2.98177e-016 -3.97569e-016
lhumerus -23.4905 -2.34538 90.1902
lradius 18.2802
lwrist 10.1918
lhand -26.559 -7.66197
lfingers 7.12502
lthumb 0.0058625 22.3178
rfemur -16.1065 -2.44916 19.9942
rtibia 19.5539
rfoot -10.7485 -0.639822
rtoes 18.4503
lfemur -13.4905 4.71149 -17.7463
ltibia 15.9597
lfoot -7.10834 3.8194
ltoes 5.46462
466
root 0.119933 17.8925 3.23902 10.3782 0.6456 -0.735853
lowerback -0.464134 0.371497 -0.107329
upperback 3.58719 0.462704 1.06547
thorax 3.94014 0.207652 1.17532
lowerneck -11.9637 -0.394389 -1.91461
upperneck 33.3891 -0.575165 1.54624
head 13.1858 -0.281498 0.861037
rclavicle 3.27995e-015 5.76476e-015
rhumerus -24.2234 -11.4519 -83.2504
rradius 24.6669
rwrist 34.6879
rhand -24.5398 -29.6535
rfingers 7.12502
rthumb 1.95603 -59.6243
lclavicle 3.27995e-015 5.76476e-015
lhumerus -23.2921 -2.23716 90.2247
lradius 18.3009
lwrist 10.1854
lhand -26.6304 -7.68201
lfingers 7.12502
lthumb -0.0631429 22.2977
rfemur -16.0196 -2.46891 20.0266
rtibia 19.5739
rfoot -10.9335 -0.636735
rtoes 18.5189
lfemur -13.3508 4.74124 -17.7375
ltibia 15.9314
lfoot -7.28343 3.94915
ltoes 5.59845
467
root 0.122912 17.8831 3.24933 10.3402 0.568354 -0.753562
lowerback -0.544806 0.379355 -0.0733395
upperback 3.58863 0.471516 1.07537
thorax 3.98737 0.212772 1.16755
lowerneck -11.9641 -0.384786 -1.92524
upperneck 33.4251 -0.561045 1.55172
head 13.2011 -0.276201 0.867398
rclavicle 8.94531e-016 1.72943e-014
rhumerus -24.1224 -11.5703 -83.2198
rradius 24.5775
rwrist 34.7971
rhand -24.4761 -29.6778
rfingers 7.12502
rthumb 2.01757 -59.648
lclavicle 8.94531e-016 1.72943e-014
lhumerus -23.1084 -2.17399 90.2717
lradius 18.3448
lwrist 10.1649
lhand -26.6768 -7.66167
lfingers 7.12502
lthumb -0.10795 22.3181
rfemur -15.9569 -2.484 20.0454
rtibia 19.6078
rfoot -11.111 -0.611148
rtoes 18.5852
lfemur -13.2188 4.77161 -17.7374
ltibia 15.888
lfoot -7.44318 4.07688
ltoes 5.72014
